<?xml version="1.0" standalone="no"?><svg xmlns="http://www.w3.org/2000/svg" viewBox="0 0 1440 320"><path fill="#0099ff" fill-opacity="1" d="M0,224L24,192C48,160,96,96,144,90.7C192,85,240,139,288,181.3C336,224,384,256,432,266.7C480,277,528,267,576,234.7C624,203,672,149,720,133.3C768,117,816,139,864,128C912,117,960,75,1008,53.3C1056,32,1104,32,1152,69.3C1200,107,1248,181,1296,197.3C1344,213,1392,171,1416,149.3L1440,128L1440,320L1416,320C1392,320,1344,320,1296,320C1248,320,1200,320,1152,320C1104,320,1056,320,1008,320C960,320,912,320,864,320C816,320,768,320,720,320C672,320,624,320,576,320C528,320,480,320,432,320C384,320,336,320,288,320C240,320,192,320,144,320C96,320,48,320,24,320L0,320Z"></path></svg>